<svg id="visual" viewBox="0 0 960 75" width="960" height="75" xmlns="http://www.w3.org/2000/svg" xmlns:xlink="http://www.w3.org/1999/xlink" version="1.1"><path d="M0 10L20 9.5C40 9 80 8 120 10C160 12 200 17 240 17.5C280 18 320 14 360 12.5C400 11 440 12 480 11.5C520 11 560 9 600 10.5C640 12 680 17 720 19.5C760 22 800 22 840 22C880 22 920 22 940 22L960 22L960 0L940 0C920 0 880 0 840 0C800 0 760 0 720 0C680 0 640 0 600 0C560 0 520 0 480 0C440 0 400 0 360 0C320 0 280 0 240 0C200 0 160 0 120 0C80 0 40 0 20 0L0 0Z" fill="#4f5165"></path><path d="M0 37L20 36.5C40 36 80 35 120 34.5C160 34 200 34 240 34.5C280 35 320 36 360 34C400 32 440 27 480 25C520 23 560 24 600 26.5C640 29 680 33 720 34C760 35 800 33 840 32.5C880 32 920 33 940 33.5L960 34L960 20L940 20C920 20 880 20 840 20C800 20 760 20 720 17.5C680 15 640 10 600 8.5C560 7 520 9 480 9.5C440 10 400 9 360 10.5C320 12 280 16 240 15.5C200 15 160 10 120 8C80 6 40 7 20 7.5L0 8Z" fill="#535973"></path><path d="M0 40L20 42C40 44 80 48 120 49.5C160 51 200 50 240 50C280 50 320 51 360 49.5C400 48 440 44 480 41C520 38 560 36 600 36C640 36 680 38 720 38.5C760 39 800 38 840 38C880 38 920 39 940 39.5L960 40L960 32L940 31.5C920 31 880 30 840 30.5C800 31 760 33 720 32C680 31 640 27 600 24.5C560 22 520 21 480 23C440 25 400 30 360 32C320 34 280 33 240 32.5C200 32 160 32 120 32.5C80 33 40 34 20 34.5L0 35Z" fill="#566282"></path><path d="M0 70L20 71.5C40 73 80 76 120 75.5C160 75 200 71 240 69.5C280 68 320 69 360 67.5C400 66 440 62 480 61C520 60 560 62 600 61C640 60 680 56 720 56C760 56 800 60 840 62.5C880 65 920 66 940 66.5L960 67L960 38L940 37.5C920 37 880 36 840 36C800 36 760 37 720 36.5C680 36 640 34 600 34C560 34 520 36 480 39C440 42 400 46 360 47.5C320 49 280 48 240 48C200 48 160 49 120 47.5C80 46 40 42 20 40L0 38Z" fill="#566c91"></path><path d="M0 79L20 80C40 81 80 83 120 83C160 83 200 81 240 81.5C280 82 320 85 360 82.5C400 80 440 72 480 69C520 66 560 68 600 67.5C640 67 680 64 720 65.5C760 67 800 73 840 76C880 79 920 79 940 79L960 79L960 65L940 64.5C920 64 880 63 840 60.5C800 58 760 54 720 54C680 54 640 58 600 59C560 60 520 58 480 59C440 60 400 64 360 65.5C320 67 280 66 240 67.5C200 69 160 73 120 73.5C80 74 40 71 20 69.5L0 68Z" fill="#55769f"></path><path d="M0 100L20 102.5C40 105 80 110 120 110.5C160 111 200 107 240 105.5C280 104 320 105 360 106C400 107 440 108 480 104C520 100 560 91 600 89C640 87 680 92 720 94C760 96 800 95 840 99.5C880 104 920 114 940 119L960 124L960 77L940 77C920 77 880 77 840 74C800 71 760 65 720 63.5C680 62 640 65 600 65.5C560 66 520 64 480 67C440 70 400 78 360 80.5C320 83 280 80 240 79.5C200 79 160 81 120 81C80 81 40 79 20 78L0 77Z" fill="#547aa5"></path><path d="M0 124L20 124.5C40 125 80 126 120 124.5C160 123 200 119 240 116.5C280 114 320 113 360 113C400 113 440 114 480 111C520 108 560 101 600 99.5C640 98 680 102 720 103.5C760 105 800 104 840 108C880 112 920 121 940 125.5L960 130L960 122L940 117C920 112 880 102 840 97.5C800 93 760 94 720 92C680 90 640 85 600 87C560 89 520 98 480 102C440 106 400 105 360 104C320 103 280 102 240 103.5C200 105 160 109 120 108.5C80 108 40 103 20 100.5L0 98Z" fill="#547aa5"></path><path d="M0 139L20 140C40 141 80 143 120 141.5C160 140 200 135 240 133.5C280 132 320 134 360 136C400 138 440 140 480 135.5C520 131 560 120 600 118C640 116 680 123 720 123C760 123 800 116 840 118.5C880 121 920 133 940 139L960 145L960 128L940 123.5C920 119 880 110 840 106C800 102 760 103 720 101.5C680 100 640 96 600 97.5C560 99 520 106 480 109C440 112 400 111 360 111C320 111 280 112 240 114.5C200 117 160 121 120 122.5C80 124 40 123 20 122.5L0 122Z" fill="#55769f"></path><path d="M0 154L20 155.5C40 157 80 160 120 165C160 170 200 177 240 177C280 177 320 170 360 168.5C400 167 440 171 480 166C520 161 560 147 600 144.5C640 142 680 151 720 156C760 161 800 162 840 162C880 162 920 161 940 160.5L960 160L960 143L940 137C920 131 880 119 840 116.5C800 114 760 121 720 121C680 121 640 114 600 116C560 118 520 129 480 133.5C440 138 400 136 360 134C320 132 280 130 240 131.5C200 133 160 138 120 139.5C80 141 40 139 20 138L0 137Z" fill="#566c91"></path><path d="M0 232L20 226.5C40 221 80 210 120 210C160 210 200 221 240 230.5C280 240 320 248 360 249.5C400 251 440 246 480 238C520 230 560 219 600 213C640 207 680 206 720 212.5C760 219 800 233 840 232C880 231 920 215 940 207L960 199L960 158L940 158.5C920 159 880 160 840 160C800 160 760 159 720 154C680 149 640 140 600 142.5C560 145 520 159 480 164C440 169 400 165 360 166.5C320 168 280 175 240 175C200 175 160 168 120 163C80 158 40 155 20 153.5L0 152Z" fill="#566282"></path><path d="M0 292L20 291C40 290 80 288 120 287.5C160 287 200 288 240 288C280 288 320 287 360 288.5C400 290 440 294 480 296C520 298 560 298 600 298C640 298 680 298 720 296C760 294 800 290 840 287.5C880 285 920 284 940 283.5L960 283L960 197L940 205C920 213 880 229 840 230C800 231 760 217 720 210.5C680 204 640 205 600 211C560 217 520 228 480 236C440 244 400 249 360 247.5C320 246 280 238 240 228.5C200 219 160 208 120 208C80 208 40 219 20 224.5L0 230Z" fill="#535973"></path><path d="M0 301L20 301C40 301 80 301 120 301C160 301 200 301 240 301C280 301 320 301 360 301C400 301 440 301 480 301C520 301 560 301 600 301C640 301 680 301 720 301C760 301 800 301 840 301C880 301 920 301 940 301L960 301L960 281L940 281.5C920 282 880 283 840 285.5C800 288 760 292 720 294C680 296 640 296 600 296C560 296 520 296 480 294C440 292 400 288 360 286.5C320 285 280 286 240 286C200 286 160 285 120 285.5C80 286 40 288 20 289L0 290Z" fill="#4f5165"></path></svg>