<svg id="visual" viewBox="0 0 960 75" width="960" height="75" xmlns="http://www.w3.org/2000/svg" xmlns:xlink="http://www.w3.org/1999/xlink" version="1.1"><g stroke-width="1" stroke-linejoin="bevel"><path d="M540.3 0L562.3 75L614 75Z" fill="#03979c" stroke="#03979c"></path><path d="M614 75L673 0L540.3 0Z" fill="#8de969" stroke="#8de969"></path><path d="M765.7 75L754.7 0L673 0Z" fill="#00b59e" stroke="#00b59e"></path><path d="M540.3 0L412.7 75L562.3 75Z" fill="#00b59e" stroke="#00b59e"></path><path d="M614 75L765.7 75L673 0Z" fill="#37697c" stroke="#37697c"></path><path d="M540.3 0L401.7 0L412.7 75Z" fill="#1ac397" stroke="#1ac397"></path><path d="M765.7 75L836.3 75L754.7 0Z" fill="#3d5a6c" stroke="#3d5a6c"></path><path d="M401.7 0L339 75L412.7 75Z" fill="#67de7c" stroke="#67de7c"></path><path d="M401.7 0L306 0L339 75Z" fill="#42d18b" stroke="#42d18b"></path><path d="M836.3 75L878.3 0L754.7 0Z" fill="#1b8795" stroke="#1b8795"></path><path d="M306 0L249.3 75L339 75Z" fill="#37697c" stroke="#37697c"></path><path d="M960 75L960 0L878.3 0Z" fill="#433A3F" stroke="#433A3F"></path><path d="M836.3 75L960 75L878.3 0Z" fill="#8de969" stroke="#8de969"></path><path d="M306 0L208.3 0L249.3 75Z" fill="#8de969" stroke="#8de969"></path><path d="M208.3 0L94.7 75L249.3 75Z" fill="#1ac397" stroke="#1ac397"></path><path d="M94.7 0L94.7 75L208.3 0Z" fill="#03979c" stroke="#03979c"></path><path d="M94.7 0L0 0L94.7 75Z" fill="#1ac397" stroke="#1ac397"></path><path d="M0 0L0 75L94.7 75Z" fill="#433A3F" stroke="#433A3F"></path></g></svg>