<svg id="visual" viewBox="0 0 960 75" width="960" height="75" xmlns="http://www.w3.org/2000/svg" xmlns:xlink="http://www.w3.org/1999/xlink" version="1.1"><rect x="0" y="0" width="960" height="75" fill="#4F3824"></rect><path d="M0 54L137 43L274 49L411 53L549 52L686 48L823 45L960 52L960 76L823 76L686 76L549 76L411 76L274 76L137 76L0 76Z" fill="#ddb967"></path><path d="M0 58L137 49L274 57L411 57L549 55L686 52L823 52L960 58L960 76L823 76L686 76L549 76L411 76L274 76L137 76L0 76Z" fill="#dba456"></path><path d="M0 62L137 58L274 57L411 61L549 56L686 62L823 57L960 57L960 76L823 76L686 76L549 76L411 76L274 76L137 76L0 76Z" fill="#d98e49"></path><path d="M0 64L137 61L274 67L411 61L549 62L686 62L823 67L960 61L960 76L823 76L686 76L549 76L411 76L274 76L137 76L0 76Z" fill="#d67841"></path><path d="M0 66L137 70L274 66L411 70L549 66L686 66L823 70L960 66L960 76L823 76L686 76L549 76L411 76L274 76L137 76L0 76Z" fill="#8DE969"></path></svg>